<?xml version="1.0" encoding="utf-8"?>
<svg id="master-artboard" viewBox="0 0 758.41064453125 574.751708984375" version="1.1" xmlns="http://www.w3.org/2000/svg" x="0px" y="0px" style="enable-background:new 0 0 1400 980;" width="758.41064453125px" height="574.751708984375px"><rect id="ee-background" x="0" y="0" width="758.41064453125" height="574.751708984375" style="fill: white; fill-opacity: 1; pointer-events: none;"/><defs><style id="ee-google-fonts">@import url(https://fonts.googleapis.com/css?family=Roboto:100,100italic,300,300italic,400,400italic,500,500italic,700,700italic,900,900italic);</style></defs>























































































































<g transform="matrix(2.2156145572662354, 0, 0, 2.2156145572662354, -5.537206375288406, -10.95186710357666)"><rect id="rect-1" x="0" y="0" width="541.6104736328125" height="135.59072875976562" style="fill: white; fill-opacity: 0; pointer-events: none;"/><g transform="matrix(2.636534690856933, 0, 0, 2.636534690856933, -7.266794029662606, -16.296769930094)"><path d="M6,55.16V9.89H16.42q11.46,0,11.45,13.29A16.69,16.69,0,0,1,26.63,30a9.6,9.6,0,0,1-4.35,4.51l7,20.67H22.4l-6-19.33H12.48V55.16ZM12.48,16V30.11h3.69a6.51,6.51,0,0,0,2.74-.48,3.79,3.79,0,0,0,1.59-1.37,6.2,6.2,0,0,0,.69-2.19,20.75,20.75,0,0,0,.19-3,20.65,20.65,0,0,0-.19-3,6,6,0,0,0-.76-2.26C19.62,16.58,18.1,16,15.85,16Z" style="fill: rgb(71, 23, 241);"/><path d="M32.7,20.57a11.47,11.47,0,0,1,1-4.83,10.1,10.1,0,0,1,2.54-3.5,10.81,10.81,0,0,1,3.47-2,11.52,11.52,0,0,1,11.35,2,10.64,10.64,0,0,1,2.48,3.5,11.63,11.63,0,0,1,1,4.83V44.48a11.53,11.53,0,0,1-1,4.89A10.08,10.08,0,0,1,51,52.74a10.71,10.71,0,0,1-3.53,2.1,11.27,11.27,0,0,1-7.82,0,10,10,0,0,1-3.47-2.1,9.59,9.59,0,0,1-2.54-3.37,11.37,11.37,0,0,1-1-4.89Zm6.49,23.91a4.29,4.29,0,0,0,1.3,3.46,4.81,4.81,0,0,0,6.17,0A4.29,4.29,0,0,0,48,44.48V20.57a4.31,4.31,0,0,0-1.3-3.47,4.84,4.84,0,0,0-6.17,0,4.31,4.31,0,0,0-1.3,3.47Z" style="fill-opacity: 1; fill: rgb(71, 23, 241);"/><path d="M60.17,55.16V9.89h9.48a13.23,13.23,0,0,1,5.31.95,9.92,9.92,0,0,1,3.59,2.54,9.49,9.49,0,0,1,2,3.66,15,15,0,0,1,.61,4.29V23a14.52,14.52,0,0,1-.29,3.12A7.57,7.57,0,0,1,80,28.33a9,9,0,0,1-3.3,3.05,7.05,7.05,0,0,1,3.37,3.18,12.61,12.61,0,0,1,1.08,5.72v2.54q0,6-2.9,9.16T69,55.16ZM66.66,16V28.45h2.92c2.17,0,3.62-.54,4.36-1.62a8.38,8.38,0,0,0,1.11-4.74,7.1,7.1,0,0,0-1.24-4.57C73,16.5,71.49,16,69.33,16Zm0,18.19V48.67h2.8a6.85,6.85,0,0,0,3.08-.57,4,4,0,0,0,1.69-1.59,6.08,6.08,0,0,0,.7-2.41c.08-.94.12-2,.12-3.06a20.13,20.13,0,0,0-.19-3,5.43,5.43,0,0,0-.76-2.16,3.75,3.75,0,0,0-1.72-1.3,8.06,8.06,0,0,0-2.86-.41Z" style="fill: rgb(71, 23, 241);"/><path d="M86.88,20.57a11.63,11.63,0,0,1,1-4.83,10.25,10.25,0,0,1,2.55-3.5,10.87,10.87,0,0,1,3.46-2,11.5,11.5,0,0,1,11.35,2,10.5,10.5,0,0,1,2.48,3.5,11.47,11.47,0,0,1,1,4.83V44.48a11.37,11.37,0,0,1-1,4.89,10,10,0,0,1-2.48,3.37,10.66,10.66,0,0,1-3.52,2.1,11.3,11.3,0,0,1-7.83,0,10,10,0,0,1-3.46-2.1,9.74,9.74,0,0,1-2.55-3.37,11.53,11.53,0,0,1-1-4.89Zm6.49,23.91a4.29,4.29,0,0,0,1.3,3.46,4.81,4.81,0,0,0,6.17,0,4.29,4.29,0,0,0,1.3-3.46V20.57a4.31,4.31,0,0,0-1.3-3.47,4.84,4.84,0,0,0-6.17,0,4.31,4.31,0,0,0-1.3,3.47Z" style="fill: rgb(71, 23, 241);"/><path d="M117.85,55.16V16h-7.51V9.89h21.5V16h-7.51V55.16Z" style="fill: rgb(71, 23, 241);"/><path d="M142.61,10.75v38.7h11.67V54.4H137V10.75h5.6m.75-.75h-7.1V55.15H155V48.7H143.36V10Z" transform="matrix(0.9999999999999998, 0, 0, 0.9999999999999998, -74.72552565812371, 50.23844146728515)" style="fill: rgb(71, 23, 241);"/><path d="M173.23,10.75l7,43.65h-5.63l-1.13-7.55-.1-.64h-10l-.09.64-1.13,7.55h-5l7-43.65h9.11M164,41.58h8.58l-.13-.86-3.42-22.83h-1.48l-3.42,22.83-.13.86M173.87,10H163.48l-7.22,45.15h6.51L164,47h8.71l1.22,8.19h7.16L173.87,10Zm-9,30.83L168.32,18l3.42,22.83Z" transform="matrix(0.9999999999999998, 0, 0, 0.9999999999999998, -74.72552565812371, 50.23844146728515)" style="fill: rgb(71, 23, 241);"/><path d="M195.09,10.75c6.75,0,9.76,3,9.76,9.63V22c0,4.41-1.32,7.08-4.15,8.41l-1.58.75,1.63.63c3.28,1.28,4.81,4.13,4.81,9v3.67c0,6.61-3.37,10-10,10H185.13V10.75h10m-4.36,18.38h3.52c3.37,0,5-1.8,5-5.52V21.09c0-3.63-1.43-5.39-4.37-5.39h-4.16V29.13m0,20.32h4.81c3,0,4.43-1.65,4.43-5.2V40.31c0-4.42-1.55-6.23-5.33-6.23h-3.91V49.45M195.09,10H184.38V55.15h11.16c7.09,0,10.77-3.74,10.77-10.71V40.77c0-4.78-1.48-8.2-5.29-9.68,3.16-1.48,4.58-4.45,4.58-9.09V20.38c0-7-3.16-10.38-10.51-10.38Zm-3.61,18.38V16.45h3.41c2.52,0,3.62,1.42,3.62,4.64v2.52c0,3.61-1.62,4.77-4.26,4.77Zm0,20.32V34.83h3.16c3.22,0,4.58,1.29,4.58,5.48v3.94c0,3.35-1.3,4.45-3.68,4.45Z" transform="matrix(0.9999999999999998, 0, 0, 0.9999999999999998, -74.72552565812371, 50.23844146728515)" style="fill: rgb(71, 23, 241);"/></g></g></svg>