<svg xmlns="http://www.w3.org/2000/svg" viewBox="0 0 512 512" style="height: 512px; width: 512px;"><path d="M0 0h512v512H0z" fill="#ffffff" fill-opacity="0"></path><g class="" transform="translate(0,0)" style=""><path d="M120.16 45A20.162 20.162 0 0 0 100 65.16v381.68A20.162 20.162 0 0 0 120.16 467h65.68A20.162 20.162 0 0 0 206 446.84V65.16A20.162 20.162 0 0 0 185.84 45h-65.68zm206 0A20.162 20.162 0 0 0 306 65.16v381.68A20.162 20.162 0 0 0 326.16 467h65.68A20.162 20.162 0 0 0 412 446.84V65.16A20.162 20.162 0 0 0 391.84 45h-65.68z" fill="#4825f5" fill-opacity="1" stroke="#dbdbdb" stroke-opacity="1" stroke-width="10" transform="translate(51.2, 51.2) scale(0.8, 0.8) rotate(0, 256, 256) skewX(0) skewY(0)"></path></g></svg>